<svg width="390" height="844" viewBox="0 0 390 844" fill="none" xmlns="http://www.w3.org/2000/svg">
<g filter="url(#filter0_i_213_665)">
<path fill-rule="evenodd" clip-rule="evenodd" d="M188.481 36.5116C190.65 34.5746 195.166 31.1702 200.247 34.1302C202.045 35.178 206.516 38.5793 208.933 49.2827C209.66 52.5018 210.034 55.6249 210.178 58.535C211.143 57.4818 212.109 56.4643 213.077 55.4856C214.779 53.7633 217.19 51.5139 219.679 50.6573L219.689 50.6538C220.554 50.3561 224.11 49.1316 227.879 53.3186C229.466 55.0824 230.996 57.7212 232.209 61.247C234.268 58.8035 237.161 56.3488 239.172 54.9316L239.224 54.8953C239.969 54.3692 242.139 52.8386 244.357 52.605C244.934 52.5442 246.692 52.394 248.774 53.7799C249.307 54.1352 250.037 54.7374 250.849 55.6617C251.646 54.8793 252.448 54.1064 253.217 53.3842C254.955 51.7512 257.67 49.2632 259.821 48.1203C260.286 47.8729 261.772 47.0851 263.587 47.1774C264.407 47.2191 266.624 47.4558 269.066 50.1947C269.933 51.1668 270.787 52.4222 271.579 53.9458C272.836 52.4698 274.112 51.0111 275.407 49.5782C275.488 49.4627 275.638 49.2434 275.879 48.8817C275.938 48.7929 276.008 48.6858 276.089 48.5639C276.579 47.8215 277.432 46.5282 278.224 45.4593C278.242 45.4344 278.265 45.4023 278.293 45.3638C278.856 44.5912 281.321 41.2084 284.417 40.2332C286.298 39.6404 290.839 39.2243 294.801 46.9785C296.542 50.3867 297.564 54.2005 298.161 57.6982C298.534 57.5048 298.986 57.3076 299.493 57.1633L299.53 57.1526C300.113 56.9837 302.936 56.1665 306.104 59.1865C307.749 60.7537 309.631 63.5147 311.1 67.9345C312.894 68.7153 315.439 70.7056 317.652 75.8418C321.498 84.768 321.131 95.0954 320.596 100.083C321 100.107 321.426 100.172 321.868 100.295C324.336 100.978 329.717 104.524 331.963 117.542C332.589 118.254 333.24 119.143 333.884 120.253C334.987 119.069 335.96 118.067 336.752 117.311C337.284 116.803 338.301 115.85 339.391 115.167C339.395 115.165 339.401 115.161 339.411 115.154C339.645 114.998 341.648 113.664 344.103 114.129C345.173 114.331 349.795 115.44 352.99 125.051C354.556 129.763 355.147 134.512 355.266 138.643C355.788 139.026 356.332 139.51 356.887 140.12C360.141 143.696 362.755 150.572 363.446 159.41C363.995 166.435 363.097 171.897 362.694 174.041C362.3 176.137 361.849 177.789 361.518 178.886C364.193 184.414 365.475 191.956 365.375 199.281C365.286 205.79 364.149 210.533 363.625 212.515C362.52 216.692 361.081 219.749 360.399 221.158C358.385 225.314 355.232 230.397 351.79 235.576C355.344 246.121 353.698 257.845 353.25 260.458C352.552 264.532 351.545 267.361 351.208 268.296C350.351 270.675 349.386 272.664 348.82 273.797C347.628 276.183 346.159 278.787 344.849 281.031C346.821 285.249 348.204 290.996 348.49 297.721C348.809 305.245 347.594 310.889 347.12 312.92C346.067 317.433 344.577 320.881 343.802 322.62C341.141 328.583 338.327 334.356 335.488 339.918C336.124 340.35 336.79 340.916 337.468 341.657C340.597 345.078 343.183 351.43 344.109 359.811C344.887 366.85 344.198 372.669 343.754 375.531C343.266 378.68 342.614 381.171 342.141 382.793C341.19 386.058 340.051 388.878 339.116 390.999C339.012 391.235 338.908 391.472 338.803 391.709C339.448 391.166 340.211 390.604 341.033 390.176C341.753 389.801 343.409 389.033 345.466 389.446C347.525 389.86 352.099 392.061 354.971 402.158C357.597 411.387 356.77 420.346 356.388 423.466C355.937 427.155 355.223 429.957 354.826 431.406C353.983 434.485 352.922 437.307 352.022 439.548C346.987 452.097 341.451 464.245 335.77 476.006C336.443 476.546 337.141 477.248 337.844 478.157C338.31 478.76 338.745 479.41 339.151 480.099C341.556 477.805 344.002 475.708 346.485 473.866C348.849 472.112 352.196 470.016 355.649 470.456C357.49 470.691 360.538 471.783 363.415 476.551C366.66 481.926 368.175 489.434 368.528 496.185C368.836 502.081 368.264 506.966 367.84 509.777C367.381 512.828 366.781 515.465 366.262 517.489C365.23 521.52 363.936 525.368 362.765 528.582C358.435 540.468 351.995 553.812 350.414 557.059C351.087 556.482 351.798 555.944 352.536 555.495C353.768 554.744 355.986 553.657 358.617 554.376C361.657 555.208 365.662 558.737 368.164 567.7C370.307 575.371 370.142 582.892 369.942 586.369C369.553 593.147 368.157 598.914 367.477 601.611C366.586 605.142 365.512 608.705 364.479 611.915C364.243 612.648 364.002 613.386 363.756 614.127C365.008 615.671 366.244 617.82 367.308 620.724C368.995 625.331 369.666 630.248 369.881 634.057C370.257 640.693 369.371 645.79 369.113 647.242C368.458 650.925 367.534 653.757 367.202 654.769C365.628 659.571 362.793 666.153 360.255 671.86C358.334 676.179 356.173 680.9 354.013 685.547C353.264 687.545 352.52 689.501 351.814 691.323C350.236 695.397 348.168 700.61 346.778 703.341C341.317 714.061 335.121 724.605 329.365 734.398C328.628 735.651 327.899 736.893 327.179 738.121C326.912 738.596 326.65 739.063 326.392 739.521C323.585 744.51 321.198 748.688 319.953 750.829C319.651 751.347 319.361 751.842 319.136 752.217L319.127 752.231C319.066 752.334 318.786 752.799 318.474 753.263L318.473 753.264C318.394 753.382 318.115 753.797 317.745 754.268C317.591 754.465 317.137 755.039 316.525 755.631C316.192 755.94 315.323 756.631 314.783 756.982C313.839 757.456 310.999 757.898 309.128 757.398C308.889 757.21 308.641 756.977 308.386 756.702C307.517 757.057 306.545 757.303 305.501 757.306C304.16 757.31 302.334 756.899 300.4 755.245C299.625 756.6 298.842 757.951 298.068 759.262C295.641 763.373 292.77 768.008 290.322 771.134L290.301 771.162C289.453 772.245 287.073 775.285 284.225 776.371C283.075 776.81 278.442 778.344 274.135 771.12C272.279 774.032 269.798 777.587 267.366 780.229C266.162 781.536 262.912 785.022 259.126 785.13C256.966 785.192 252.691 784.154 249.235 776.22C247.363 771.924 246.433 767.215 245.998 763.033C244.285 765.604 242.741 767.774 241.385 769.442C240.638 770.361 239.756 771.368 238.806 772.231C238.088 772.883 236.3 774.438 234.023 774.728C232.567 774.913 229.239 774.54 226.212 770.221C222.751 776.199 219.242 782.064 215.678 787.782C212.987 792.099 210.609 795.627 208.613 798.033C207.688 799.146 206.257 800.749 204.585 801.805C203.756 802.329 202.281 803.104 200.452 803.021C198.609 802.937 195.407 801.894 192.49 796.475C189.42 790.773 188.408 783.497 188.185 778.456C188.118 776.937 188.114 775.516 188.148 774.224C187.019 775.939 185.646 777.975 184.277 779.88C182.658 782.136 180.568 784.891 178.552 786.922C177.621 787.86 176.059 789.316 174.232 790.124C173.317 790.528 171.749 791.044 169.86 790.586C167.921 790.115 164.859 788.384 162.223 782.681C160.355 778.637 159.378 774.213 158.896 770.163C158.187 770.946 157.403 771.713 156.587 772.336C155.853 772.896 153.478 774.67 150.489 773.941C148.782 773.524 146.314 772.147 143.986 768.073C142.075 764.728 140.856 760.609 140.154 756.577C137.721 757.048 134.321 756.32 131.093 750.807C130.41 751.776 129.679 752.779 128.923 753.763C126.945 756.334 124.008 759.823 120.821 761.763C120.034 762.242 118.959 762.795 117.725 763.041C116.78 763.228 114.919 763.422 112.738 762.064C111.285 764.68 109.827 767.275 108.364 769.848C107.148 771.986 105.922 774.03 104.79 775.608C104.288 776.307 103.306 777.626 102.067 778.697C101.47 779.214 100.257 780.171 98.6722 780.546C97.239 780.885 93.8231 781.141 90.4017 776.134C89.4155 774.691 88.6005 773.071 87.9294 771.369C86.6467 771.127 84.9615 770.374 83.1872 768.316C81.1508 765.953 79.5543 762.517 78.4587 758.544C77.7409 758.6 76.9726 758.542 76.1659 758.314C75.1355 758.023 73.3552 757.235 71.4814 754.98C70.42 756.454 69.2532 757.886 68.0377 759.014C67.1531 759.834 65.4767 761.231 63.3679 761.608C61.7778 761.892 58.2135 761.804 54.9005 756.707C52.3821 761.507 50.169 765.581 48.3259 768.775C46.5923 771.779 44.5952 775.055 42.7381 777.302L42.6908 777.36C42.0703 778.113 39.7779 780.897 36.8038 781.456C35.1031 781.776 31.3311 781.699 27.8263 775.585C24.0974 769.08 23.289 760.4 23.1965 755.624C23.0541 748.272 24.3598 742.399 24.6697 741.005C24.6814 740.953 24.6917 740.906 24.7004 740.867C25.2408 738.41 25.8963 736.029 26.5093 733.949C27.6871 729.953 29.3015 725.083 31.284 719.429C29.4829 713.694 29.1395 707.647 29.134 704.269C29.1266 699.752 29.6401 696.235 29.8857 694.698C30.1837 692.835 30.5226 691.282 30.7758 690.207C32.3209 683.645 35.3457 675.724 36.5652 672.698C39.9129 664.391 43.3303 656.182 46.8039 648.064C46.5302 642.407 47.1654 638.087 47.3213 637.027L47.3311 636.96C48.0182 632.268 49.2187 628.67 49.5674 627.626L49.5998 627.528C50.6611 624.337 52.2131 620.465 54.0253 616.18C54.9765 613.931 55.9305 611.687 56.8872 609.449C55.0922 606.044 53.7057 601.515 52.9943 596.166C52.3237 591.124 52.4175 586.605 52.6675 583.318C50.7126 583.021 47.6657 581.59 44.9478 576.011C41.1883 568.294 40.9552 558.745 41.1272 554.236C41.2958 549.816 41.9273 546.46 42.2301 544.971C42.595 543.176 42.9916 541.679 43.2945 540.613C43.4423 540.093 43.5958 539.578 43.7526 539.071C43.5562 538.397 43.3679 537.688 43.1891 536.942C40.814 527.035 41.9803 517.81 42.4301 514.762C42.4607 514.555 42.4922 514.349 42.5243 514.145C42.1726 512.824 41.8742 511.446 41.6309 510.027C40.9603 510.69 39.8006 511.711 38.3301 512.278C36.9881 512.796 33.323 513.75 29.5472 508.711C25.1401 502.829 23.9077 493.478 23.7045 487.988C23.5233 483.092 24.0038 479.244 24.2243 477.651C24.6743 474.396 25.4029 471.36 26.0314 469.081C25.6641 468.448 25.3016 467.75 24.9485 466.98C23.1291 463.014 22.1204 458.373 21.6605 454.126C20.8537 446.679 21.7295 440.654 22.0447 438.646C22.4656 435.964 22.9999 433.794 23.3697 432.408C24.1261 429.573 25.0655 426.817 25.9434 424.411C31.0643 410.373 36.5769 396.806 42.3504 383.65C42.3319 381.781 42.3989 380.244 42.4671 379.225C42.5656 377.753 42.7129 376.405 42.8767 375.212C42.3157 373.808 41.7937 372.212 41.3285 370.398C40.0178 365.288 39.6782 360.308 39.6873 356.399C39.6395 356.39 39.5917 356.38 39.5439 356.369C37.0502 355.83 33.3455 353.643 30.4167 346.497C27.4788 339.329 26.9539 331.157 27.0135 325.98C27.1145 317.192 28.933 309.884 29.6382 307.122C29.8744 306.197 30.1185 305.295 30.3639 304.426C29.2445 301.538 28.3838 298.229 27.8103 294.671C25.9489 283.123 27.6974 273.04 28.6709 268.506C29.7901 263.294 31.304 258.895 32.4522 255.859C34.4462 250.588 37.8677 243.369 37.5402 244.124C39.5777 239.426 41.6291 234.75 43.6936 230.099C43.3966 225.798 43.5101 221.945 43.6844 219.431C44.055 214.084 44.8337 209.134 45.7891 204.691C44.4824 196.575 45.2204 188.766 45.7661 185.103C46.6201 179.37 48.0962 174.716 49.0625 171.918C51.167 165.826 54.0583 159.577 56.5767 154.493C61.7753 144 67.5827 134.119 68.7872 132.149C71.4632 127.773 76.1919 119.972 80.4106 112.783C82.5797 105.989 85.5283 99.489 89.595 94.6886C90.1881 93.9886 90.9663 93.1089 91.7923 92.3589C92.183 92.0042 92.9026 91.3837 93.8014 90.8858C93.8125 90.8796 93.8268 90.8714 93.8445 90.8613C94.0856 90.7233 94.9288 90.2405 96.1361 90.0775C96.2656 89.8745 96.3954 89.6719 96.5253 89.4697C96.4815 89.5379 96.6815 89.1859 97.8763 87.217C98.7944 85.7041 100.027 83.6987 101.299 81.7301C102.5 79.8695 104.017 77.6024 105.43 75.8245C106.054 75.0387 107.193 73.6585 108.53 72.606C109.133 72.1315 110.532 71.1024 112.337 70.8666C113.574 70.7048 117.116 70.6754 120.432 75.9254C122.486 72.2137 124.373 68.9405 125.758 66.8458C126.215 66.1541 127.297 64.5313 128.59 63.2514C128.6 63.2412 128.613 63.2281 128.629 63.2123C129.032 62.8066 131.201 60.6236 134.069 60.7084C135.802 60.7596 139.149 61.7031 142.144 67.5695C143.354 69.9392 144.215 72.534 144.821 75.1006C149.706 66.5733 154.899 58.0856 160.424 50.5084C161.263 49.3577 162.14 48.2085 162.976 47.267C163.375 46.817 164.016 46.1268 164.787 45.5016C164.795 45.4949 164.807 45.4849 164.823 45.472C165.186 45.1665 167.526 43.2009 170.493 43.824C172.096 44.1606 175.093 45.5462 177.705 50.8738C178.87 48.9498 180.234 46.766 181.676 44.6651C183.518 41.9806 185.899 38.8178 188.481 36.5116ZM159.913 53.8855C159.907 53.9001 159.9 53.9155 159.893 53.9317C159.973 53.7356 159.991 53.709 159.913 53.8855ZM102.696 85.8131C102.694 85.8193 102.692 85.8256 102.689 85.8319C102.748 85.6438 102.758 85.6298 102.696 85.8131ZM40.2797 263.006C40.2799 263.005 40.2911 262.998 40.3128 262.986C40.2904 263.001 40.2795 263.007 40.2797 263.006ZM30.0745 423.779C29.9947 423.867 29.9573 423.903 29.9586 423.899C29.9599 423.894 29.9998 423.85 30.0745 423.779ZM36.75 680.891C36.5607 681.136 36.6012 681.041 36.8311 680.781C36.7923 680.835 36.7655 680.871 36.75 680.891ZM182.252 770.041C182.25 770.045 182.26 769.993 182.285 769.882C182.266 769.983 182.254 770.037 182.252 770.041ZM243.677 759.508C243.674 759.513 243.703 759.409 243.775 759.185C243.717 759.392 243.681 759.504 243.677 759.508ZM269.369 762.935C269.365 762.939 269.385 762.856 269.438 762.685C269.398 762.847 269.372 762.931 269.369 762.935ZM347.794 440.733C347.797 440.732 347.772 440.758 347.72 440.803C347.767 440.756 347.791 440.735 347.794 440.733ZM333.078 390.922C333.077 390.926 333.042 390.948 332.976 390.981C333.046 390.936 333.079 390.919 333.078 390.922ZM344.446 275.766C344.444 275.77 344.423 275.79 344.385 275.822C344.429 275.78 344.449 275.763 344.446 275.766ZM254.868 55.6377C254.862 55.6487 254.856 55.6597 254.85 55.6707C254.894 55.5872 254.904 55.5743 254.868 55.6377ZM212.366 63.5204C212.364 63.5239 212.363 63.5276 212.361 63.5314C212.378 63.4872 212.381 63.4831 212.366 63.5204Z" fill="#E4EDED"/>
<path fill-rule="evenodd" clip-rule="evenodd" d="M222.704 631.436C223.51 632.301 224.165 633.637 224.611 635.211C225.167 637.168 225.277 639.032 225.306 639.939C225.365 641.744 225.2 643.273 225.129 643.891C224.919 645.741 224.484 648.067 224.015 650.326C224.117 650.267 224.221 650.213 224.326 650.165C225.687 649.54 226.92 650.049 227.873 650.859C229.598 652.325 230.899 655.183 231.749 657.345C232.693 659.744 233.58 662.597 234.38 665.472C234.834 667.101 235.282 668.821 235.72 670.586C237.062 673.03 238.378 676.07 239.67 679.487C239.924 680.158 240.311 681.126 240.782 682.305C242.076 685.54 244.003 690.36 245.544 694.969C246.643 698.257 247.757 702.018 248.54 705.891C249.079 708.557 249.6 711.945 249.658 715.633C250.08 716.097 250.505 716.563 250.933 717.033C251.758 717.938 252.598 718.859 253.455 719.811C255.782 722.397 263.255 732.37 268.53 742.964C269.873 745.663 271.168 748.586 272.221 751.608C273.236 754.52 274.251 758.15 274.677 762.238C275.145 766.732 274.892 771.951 273.209 776.39C271.706 780.353 269.525 782.436 267.396 783.615C257.436 789.129 247.777 791.25 237.656 791.25C236.062 791.25 233.868 791.617 231.146 792.108C230.935 792.146 230.721 792.185 230.505 792.224C228.022 792.674 225.23 793.18 222.461 793.451C219.462 793.745 216.328 793.783 213.463 793.113C210.694 792.466 207.66 791.054 205.224 787.665C204.438 786.572 202.836 783.701 202.752 778.626C202.173 778.593 201.577 778.484 200.976 778.276C197.593 781.838 193.591 784.803 189.388 784.075C187.01 783.664 184.529 782.203 182.727 778.334C182.585 778.471 182.443 778.606 182.301 778.739C180.539 780.393 178.528 782.007 176.532 782.802C174.621 783.563 172.048 783.849 169.671 781.126C169.153 780.532 168.665 779.798 168.228 778.93C166.245 780.332 164.28 781.467 162.357 782.277C159.969 783.282 157.662 783.785 155.732 782.935C154.72 782.489 153.428 781.507 152.344 779.22C152.195 778.905 152.056 778.579 151.927 778.244C149.703 780.188 147.306 781.735 144.696 782.542C143.275 782.981 141.948 783.181 140.759 782.999C139.663 782.831 138.136 782.267 136.797 780.137C136.339 779.41 135.952 778.579 135.633 777.675C131.714 782.803 127.482 786.814 123.013 788.533C120.934 789.333 118.947 789.59 117.177 788.869C115.36 788.128 113.34 786.129 112.114 781.707C110.931 777.438 111.054 772.921 111.413 769.737C111.777 766.511 112.497 763.513 113.271 760.971C114.828 755.854 117.135 750.861 119.578 747.101C121.042 744.848 122.842 742.592 124.791 741.237C125.228 740.357 125.666 739.461 126.116 738.545C127.014 736.711 127.954 734.793 129 732.74C131.499 727.831 134.331 722.737 137.623 718.836C137.638 718.817 137.654 718.798 137.67 718.779C139.824 709.019 143.05 699.679 146.223 691.483C148.757 684.938 151.451 678.654 153.907 672.983C154.202 672.301 154.493 671.63 154.779 670.97C155.089 670.254 155.394 669.55 155.694 668.859C155.731 668.312 155.774 667.798 155.818 667.326C156.397 661.055 158.295 654.524 160.118 649.386C162.047 643.948 164.41 638.644 166.621 634.76C167.714 632.839 168.909 631.018 170.101 629.737C170.698 629.096 171.423 628.45 172.226 628.075C172.997 627.714 174.167 627.45 175.441 628.364C176.048 628.799 176.596 629.444 177.075 630.256C178.475 628.139 180.008 626.335 181.676 625.104C183.935 623.438 186.409 623.335 188.622 625.995C190.103 627.775 191.103 630.36 191.76 633.011C192.361 632.553 193.081 632.131 193.857 631.983C194.345 631.348 194.824 630.752 195.292 630.2C197.13 628.036 199.254 626.006 201.335 625.515C202.226 625.304 203.307 625.327 204.423 626.051C205.104 624.646 205.87 623.265 206.707 622.144C207.652 620.877 209.051 619.446 210.742 619.446C211.449 619.446 212.382 619.81 213.285 621.112C213.384 621.256 213.479 621.404 213.569 621.557C213.688 621.347 213.807 621.144 213.927 620.947C214.262 620.398 214.682 619.77 215.163 619.227C215.587 618.748 216.381 617.959 217.399 617.791C218.581 617.596 220.203 618.279 221.447 621.237C222.507 623.757 222.716 626.618 222.767 628.056C222.806 629.192 222.775 630.336 222.704 631.436ZM206.606 625.309C206.606 625.309 206.603 625.32 206.598 625.343C206.603 625.321 206.606 625.309 206.606 625.309ZM183.701 642.333C183.701 642.332 183.702 642.339 183.705 642.353C183.702 642.34 183.701 642.333 183.701 642.333ZM143.429 772.543C143.428 772.544 143.434 772.515 143.45 772.456C143.438 772.513 143.43 772.543 143.429 772.543ZM255.883 746.438C252.945 741.978 250.289 738.529 249.279 737.408C248.523 736.567 247.75 735.72 246.966 734.861C245.485 733.237 243.963 731.569 242.436 729.818C242.247 730.404 242.03 730.981 241.779 731.536C241.707 731.697 241.633 731.852 241.558 732.003C242.329 732.14 243.13 732.425 243.876 732.967C244.499 733.419 245.647 734.44 246.561 736.823C247.72 739.848 248.02 743.8 247.479 747.368C247.278 748.697 246.984 749.82 246.675 750.746C247.059 750.558 247.44 750.37 247.812 750.186C249.245 749.479 250.535 748.842 251.346 748.537C252.085 748.259 252.719 747.924 253.44 747.544C253.583 747.468 253.73 747.391 253.882 747.312C254.425 747.028 255.12 746.671 255.883 746.438ZM246.463 709.2C246.463 709.2 246.459 709.196 246.451 709.186C246.459 709.195 246.463 709.2 246.463 709.2ZM212.94 694.435C212.925 694.483 212.91 694.532 212.895 694.581C212.479 695.927 212.044 697.271 211.586 698.601C211.847 699.073 212.078 699.594 212.28 700.153C212.482 698.25 212.701 696.344 212.94 694.435ZM185.903 719.831C186.057 721.608 185.972 723.134 185.898 723.987C185.882 724.17 185.864 724.35 185.845 724.526C186.564 723.385 187.285 722.251 188.011 721.124C187.755 721.081 187.491 720.999 187.221 720.869C186.746 720.639 186.306 720.285 185.903 719.831ZM223.171 648.302C223.171 648.302 223.167 648.31 223.16 648.323C223.167 648.309 223.171 648.302 223.171 648.302Z" fill="#D16861"/>
<path fill-rule="evenodd" clip-rule="evenodd" d="M168.282 630.958C170.486 633.622 171.275 639.647 170.044 644.416C169.834 645.232 169.623 646.045 169.411 646.856C170.035 647.28 170.72 648.057 171.335 649.437C172.444 651.922 172.622 654.793 172.632 656.256C172.642 657.727 172.501 658.879 172.423 659.438C172.261 660.594 172.034 661.513 171.918 661.962C171.653 662.992 171.301 664.104 170.935 665.192C167.168 676.402 162.756 686.779 158.551 696.67C158.486 696.822 158.422 696.973 158.357 697.125C158.402 697.215 158.447 697.307 158.492 697.403C158.819 696.949 159.161 696.518 159.504 696.154C159.792 695.85 160.222 695.44 160.743 695.16C161.174 694.928 162.233 694.462 163.474 695.337C165.072 696.465 166.152 699.208 166.554 702.264C166.868 704.65 166.705 706.666 166.621 707.511C166.441 709.328 166.075 710.876 165.87 711.699C164.988 715.244 163.129 720.573 161.181 725.847C160.039 728.942 158.767 732.276 157.46 735.625C158.457 736.046 159.744 737.322 160.563 740.394C161.35 743.347 161.18 746.127 161.108 747.026C160.962 748.844 160.603 750.14 160.554 750.318C160.552 750.326 160.55 750.331 160.549 750.335C160.44 750.737 160.341 751.038 160.295 751.175C160.144 751.624 159.997 751.978 159.971 752.04L159.968 752.047C159.913 752.179 159.86 752.302 159.817 752.401C159.65 752.782 159.392 753.351 159.045 754.102C158.684 754.883 158.236 755.796 157.723 756.792C157.675 756.898 157.627 757.004 157.58 757.11C157.799 757.269 158.025 757.428 158.27 757.6C158.362 757.665 158.456 757.732 158.554 757.801C159.008 758.121 159.529 758.495 160.041 758.911C162.405 760.829 163.602 766.53 162.716 771.645C161.83 776.759 159.195 779.351 156.832 777.433C156.383 777.069 156.037 776.828 155.614 776.533C155.26 776.287 154.853 776.004 154.287 775.579C153.335 774.866 152.016 773.794 150.835 772.102C150.446 771.546 150.027 770.856 149.619 770.014C149.276 770.458 148.94 770.874 148.613 771.254C147.717 772.297 146.556 773.481 145.348 774.016C144.811 774.254 143.398 774.704 141.96 773.558C141.392 774.858 140.802 776.154 140.195 777.412C136.958 784.117 131.955 792.452 125.967 790.601C124.664 790.198 123.086 788.666 122.121 785.096C121.289 782.018 121.341 778.941 121.441 777.276C121.563 775.241 121.888 773.243 122.255 771.481C119.86 775.598 117.329 779.185 114.745 781.514C113.763 782.4 112.865 783.136 112.101 783.612C111.728 783.845 111.25 784.104 110.736 784.234L110.731 784.235C110.41 784.316 109.203 784.621 107.916 783.314C107.124 782.51 106.229 781.008 105.673 778.54C105.14 776.17 105.149 773.921 105.256 772.444C105.441 769.897 106.025 768.104 106.206 767.551C106.693 766.069 107.345 764.71 107.845 763.719C109.954 759.548 114.224 752.648 118.934 745.063C119.233 744.582 119.534 744.097 119.838 743.608C123.011 738.499 126.448 732.966 129.81 727.39C130.682 725.362 131.53 723.423 132.331 721.665C144.424 695.125 153.616 667.508 162.064 634.771C163.294 630.002 166.078 628.295 168.282 630.958ZM109.49 764.651C109.49 764.651 109.493 764.65 109.498 764.647ZM147.684 763.328C147.684 763.328 147.685 763.322 147.686 763.31C147.685 763.321 147.684 763.327 147.684 763.328ZM156.484 759.718C156.484 759.718 156.486 759.711 156.491 759.697C156.486 759.71 156.484 759.717 156.484 759.718ZM156.5 759.815C156.5 759.816 156.501 759.805 156.505 759.784C156.502 759.805 156.5 759.815 156.5 759.815Z" fill="#E97B74"/>
<path fill-rule="evenodd" clip-rule="evenodd" d="M216.242 621.227C216.052 621.3 215.856 621.402 215.656 621.537C214.356 622.419 213.523 624.29 213.06 625.902C212.667 627.268 212.478 628.646 212.387 629.741C212.286 629.697 212.183 629.659 212.076 629.628C211.393 629.431 210.453 629.495 209.472 630.484C208.922 631.038 208.472 631.77 208.112 632.566C207.819 632.354 207.488 632.183 207.125 632.103C206.305 630.572 205.232 629.662 204.063 629.704C201.539 629.797 199.528 634.3 199.571 639.761C199.776 665.979 201.765 691.652 206.325 716.508C207.518 723.01 210.04 735.922 211.834 742.891C212.241 744.471 212.831 746.638 213.523 748.251C213.72 748.71 214.032 749.38 214.453 750.014C214.826 750.575 215.64 751.656 216.794 751.892C218.11 752.162 219.412 751.23 220.394 749.322C220.494 749.56 220.598 749.795 220.706 750.025C221.36 751.412 222.64 753.614 224.507 753.866C226.102 754.082 227.553 752.609 228.505 750.181C228.975 752.023 229.371 753.492 229.695 754.598C229.91 755.332 230.284 756.576 230.751 757.618C230.887 757.923 231.12 758.413 231.439 758.908C231.699 759.313 232.365 760.281 233.343 760.665C234.555 761.142 236.116 760.614 237.348 758.079C237.682 757.391 237.934 756.668 238.126 755.977C238.577 757.743 239.046 759.471 239.487 760.879C239.766 761.77 240.291 763.391 240.991 764.673C241.243 765.134 242.239 766.955 243.774 767.254C244.699 767.434 245.757 767.039 246.726 765.706C247.637 764.452 248.153 762.806 248.43 761.605C248.595 760.893 248.737 760.165 248.859 759.426C249.105 759.306 249.355 759.144 249.608 758.931C250.154 758.47 250.636 757.837 251.05 757.089C252.817 761.314 254.572 765.373 256.208 769.037C259.478 776.356 262.615 782.861 264.637 786.032C265.113 786.779 265.847 787.861 266.675 788.551C267.04 788.855 267.959 789.556 269.117 789.281C269.767 789.127 270.582 788.642 271.367 787.434C272.171 786.196 272.699 784.572 273.004 782.971C273.54 780.16 273.355 777.643 273.275 776.725C273.171 775.534 272.998 774.498 272.857 773.753C272.815 773.53 272.77 773.305 272.723 773.078C273.532 772.323 274.372 770.937 274.945 768.429C275.807 764.657 275.248 761.262 275.17 760.787C275.168 760.773 275.166 760.761 275.164 760.753C275.009 759.781 274.816 759.074 274.738 758.794C274.561 758.161 274.381 757.67 274.302 757.458C273.768 756.02 272.553 753.423 271.446 751.101C269.104 746.192 265.602 739.144 264.499 737.287C258.176 726.644 254.259 715.978 248.873 701.084C248.568 700.243 248.218 699.259 247.828 698.164C246.046 693.16 243.439 685.839 240.65 679.253C238.94 675.216 237.05 671.178 235.107 667.936C234.175 666.38 233.122 664.821 231.978 663.535C231.44 661.68 230.9 659.827 230.359 657.976C230.114 656.793 229.864 655.597 229.61 654.387C227.985 646.659 226.18 638.541 223.991 631.186C223.852 630.493 223.713 629.799 223.576 629.104C223.2 627.206 222.582 625.693 221.834 624.662C221.751 624.453 221.669 624.252 221.587 624.062L221.583 624.052C221.446 623.736 221.004 622.71 220.352 621.886C220.072 621.531 219.151 620.414 217.858 620.493C217.28 620.527 216.737 620.789 216.242 621.227ZM212.906 740.699C212.906 740.697 212.905 740.655 212.905 740.578C212.907 740.662 212.907 740.701 212.906 740.699ZM264.396 781.236C264.396 781.239 264.397 781.241 264.397 781.244C264.4 781.257 264.401 781.263 264.401 781.264" fill="#AB4D48"/>
<path fill-rule="evenodd" clip-rule="evenodd" d="M172.249 74.5227C177.51 71.3796 183.155 68.8943 189.031 69.238C190.862 69.3451 192.395 69.5879 193.554 70.0758C194.081 70.298 194.91 70.7161 195.711 71.6641C196.027 72.0388 196.721 72.9865 197.316 74.5992C199.361 74.4317 201.408 74.4269 203.449 74.5709C206.415 74.7801 209.383 75.3039 212.33 76.1087C217.676 76.6654 223.449 78.0536 227.897 81.8198C228.999 82.7536 230.054 83.8752 231.038 85.0393C236.234 88.5999 241.154 92.9141 245.625 97.7525C245.635 97.7632 245.645 97.7739 245.655 97.7845C246.466 98.407 247.134 99.0314 247.585 99.5012L247.603 99.5199C247.787 99.7103 248.347 100.292 248.827 101.098C248.923 101.258 249.101 101.569 249.301 102.008L249.306 102.019C249.429 102.291 249.947 103.427 250.29 105.269C250.329 105.48 250.371 105.726 250.412 106.005C252.313 109.724 254.13 113.568 255.874 117.257C256.048 117.625 256.221 117.991 256.394 118.356C258.363 122.519 260.255 126.479 262.224 130.189C262.849 129.47 263.622 128.966 264.521 129.004C265.852 129.062 266.8 130.296 267.259 131.019C275.586 144.124 280.849 160.199 284.554 178.377C285.777 179.112 286.664 180.608 287.141 181.53C287.936 183.066 288.566 184.901 289.037 186.454C289.997 189.626 290.825 193.437 291.423 196.558C292.003 199.584 292.52 202.772 292.731 204.825C293.091 208.34 293.485 211.917 293.884 215.553C294.463 220.812 295.054 226.195 295.582 231.698C296.376 233.334 297.055 235.096 297.589 236.578C299.694 242.421 301.516 249.632 301.951 251.583C303.022 256.399 304.057 261.438 305.03 266.642C305.876 267.282 306.442 268.299 306.734 268.897C307.363 270.183 307.709 271.588 307.834 272.107C308.007 272.828 308.145 273.542 308.249 274.127C308.46 275.309 308.653 276.642 308.821 277.896C309.335 281.742 309.896 287.102 310.168 289.705C310.237 290.366 310.288 290.849 310.314 291.084C311.169 298.69 311.637 312.479 311.905 323.246C312.166 328.483 312.306 333.698 312.306 338.845C312.306 339.799 312.305 340.545 312.303 341.084L312.302 341.146C312.302 341.429 312.3 342.283 312.266 342.947L312.266 342.958C312.26 343.069 312.229 343.703 312.134 344.462L312.132 344.481C312.107 344.694 311.923 346.242 311.384 347.806C311.055 348.637 310.112 350.147 309.262 351.051C309.564 355.77 309.848 360.452 310.129 365.076C310.442 370.242 310.752 375.335 311.076 380.328C313.772 421.817 306.107 457.948 298.594 494.531C297.569 499.523 296.33 503.343 294.024 501.125C292.832 499.979 292.727 501.462 292.5 501.125C290.556 507.904 290.345 516.199 287.863 523.361C287.118 525.51 286.484 527.235 285.958 528.504C285.703 529.121 285.39 529.832 285.043 530.474C284.87 530.794 284.612 531.242 284.284 531.673C284.012 532.031 283.374 532.812 282.483 533.109C281.823 533.328 280.938 533.28 280.046 532.517C275.042 548.372 268.409 561.598 259.095 569.089C254.881 578.863 250.064 587.497 244.746 595.097C238.903 603.447 231.902 612.698 224.495 619.95C217.127 627.165 209.074 632.688 201.178 632.998C194.249 633.271 187.939 631.291 181.276 624.802C180.863 624.4 180.446 623.906 180.038 623.363C178.223 623.232 176.381 622.876 174.514 622.266C167.596 620.006 161.106 615.499 155.342 604.009C154.767 602.864 154.156 601.819 153.474 600.655C153.403 600.534 153.331 600.411 153.259 600.287C153.225 600.229 153.189 600.168 153.151 600.102C152.659 599.265 151.798 597.799 151.133 596.146C149.584 595.212 147.969 594.11 146.378 592.697L146.358 592.68C146.255 592.588 146.14 592.486 146.019 592.377C145.721 592.98 145.39 593.515 145.03 593.97C142.702 596.914 140.183 595.505 138.826 594.339C137.175 592.921 135.54 590.472 134.048 587.244C130.806 580.228 127.691 571.791 124.863 564.131C123.926 561.594 123.021 559.143 122.153 556.856C122.153 556.856 122.15 556.85 122.143 556.832C122.108 556.748 121.977 556.434 121.677 555.724L121.55 555.422C121.259 554.735 120.896 553.876 120.5 552.926C119.596 550.757 118.456 547.96 117.479 545.285C117.195 544.509 116.909 543.7 116.638 542.886C116.603 542.827 116.569 542.768 116.534 542.709C115.443 540.842 114.354 538.673 113.374 536.167C112.466 536.123 111.75 535.504 111.298 534.976C110.404 533.932 109.913 532.512 109.794 532.169L109.79 532.158C109.6 531.609 109.473 531.125 109.407 530.865C109.182 529.969 109.026 529.037 108.963 528.66C108.869 528.095 108.766 527.422 108.658 526.683C107.389 525.416 106.278 523.677 105.386 522.071C103.99 519.555 102.686 516.538 101.581 513.616C97.8802 503.827 95.5599 492.569 93.8067 481.561C92.9003 478.186 92.1285 475.025 91.8121 473.509C89.1878 460.933 87.3574 447.205 85.8891 433.858C84.0783 424.808 82.1976 415.135 80.9026 404.81C80.6699 402.955 80.4067 399.324 80.1913 395.898C79.9589 392.2 79.7273 387.828 79.5952 384.052C79.5297 382.179 79.4837 380.312 79.4815 378.689C79.4805 377.882 79.4899 377.003 79.5241 376.144C79.5515 375.457 79.6181 374.068 79.8607 372.596C79.915 372.266 80.0054 371.758 80.1508 371.161C79.9744 369.012 79.8279 367.175 79.7295 365.846C79.69 365.313 79.6533 364.796 79.625 364.346C78.982 363.132 78.609 361.802 78.47 361.232C78.0844 359.653 77.9447 358.124 77.8853 357.398C77.8105 356.483 77.7672 355.536 77.7396 354.638C77.6842 352.833 77.6731 350.557 77.6969 347.817C77.8341 332.088 78.8383 314.884 80.2393 299.724C81.7512 283.365 84.1309 266.65 87.2213 250.274C86.6713 246.469 86.8963 242.626 87.1756 240.037C87.648 235.659 88.6595 231.016 89.8157 226.604C90.8833 222.529 92.2123 218.141 93.6968 213.628C94.7316 205.662 96.2868 197.783 99.3093 189.865C102.232 182.207 105.151 176.086 108.177 170.882C110.816 162.542 113.937 153.016 117.71 145.991C122.028 137.95 126.385 130.67 130.834 124.092C137.653 106.812 146.603 90.89 157.201 84.4397C159.5 83.0401 161.824 81.4434 164.249 79.7765L164.52 79.5905C167.016 77.8752 169.616 76.0963 172.249 74.5227ZM146.113 592.183C146.121 592.188 146.13 592.194 146.141 592.201C146.214 592.245 146.313 592.31 146.436 592.393C146.906 592.71 147.723 593.295 148.774 594.059C149.144 594.328 149.548 594.623 149.97 594.931C150.284 595.161 150.609 595.398 150.937 595.637M270.539 165.27C268.837 160.428 266.901 155.941 264.671 151.79C264.572 151.859 264.471 151.923 264.368 151.981C264.074 152.147 263.786 152.255 263.504 152.316C264.801 155.829 266.048 159.41 267.258 162.96C267.821 162.959 268.24 163.165 268.401 163.245C268.979 163.535 269.449 163.994 269.72 164.282C269.985 164.563 270.26 164.899 270.539 165.27ZM278.773 220.876C272.67 211.299 267.981 198.443 263.813 186.251C263.082 184.111 262.368 181.998 261.665 179.918C258.179 169.596 254.967 160.087 251.215 152.124C241.833 132.211 231.422 127.067 220.147 128.831C210.19 130.39 199.902 137.239 189.195 144.367C187.406 145.557 185.606 146.755 183.794 147.938C183.615 148.055 183.069 148.532 182.016 149.662C181.037 150.711 179.843 152.077 178.459 153.681C178.051 154.154 177.628 154.646 177.193 155.152C174.72 158.028 171.836 161.382 168.957 164.446C165.606 168.012 162.005 171.469 158.828 173.383C157.249 174.336 155.532 175.06 153.874 175.004C152.249 174.95 150.088 174.111 148.355 170.559C145.084 163.853 145.329 154.644 146.102 148.221C146.39 145.824 146.795 143.398 147.278 140.994C144.979 145.583 142.666 150.419 140.311 155.419C137.848 160.649 135.251 165.462 132.789 170.025C132.69 170.208 132.592 170.391 132.494 170.573C129.903 175.376 127.46 179.933 125.192 184.842L125.18 184.867C125.142 184.955 125.102 185.041 125.062 185.126C124.293 186.818 123.434 188.941 122.422 191.479C122.307 191.768 122.19 192.061 122.072 192.359C121.211 194.522 120.263 196.904 119.279 199.226C119.791 201.9 119.788 204.521 119.755 206.011C119.716 207.745 119.581 209.62 119.38 211.595C119.385 212.256 119.36 212.787 119.342 213.098C119.298 213.862 119.223 214.504 119.18 214.853C116.165 239.088 112.67 263.101 109.144 286.904C108.628 290.384 108.112 293.858 107.596 297.328C107.433 298.428 107.27 299.528 107.106 300.627C107.097 301.433 107.086 302.232 107.073 303.023C107.016 306.533 106.934 309.678 106.857 312.655C106.756 316.564 106.663 320.182 106.641 323.95C106.634 325.161 106.641 326.875 106.649 328.934C106.667 333.391 106.691 339.461 106.595 345.511C107.279 355.662 108.07 365.825 108.943 375.956C110.283 384.583 111.52 393.34 112.59 402.312C113.185 407.303 113.553 411.116 113.673 413.71C113.705 414.388 113.731 415.211 113.719 416.073L113.719 416.086C113.712 416.628 113.687 418.53 113.248 420.566C113.006 421.685 112.438 423.783 111.248 425.187C110.155 426.476 109.039 426.603 108.131 426.22C108.356 427.202 108.585 428.227 108.814 429.273C109.589 432.805 110.416 436.779 111.178 440.536C112.296 441.261 113.039 442.666 113.396 443.417C113.839 444.348 114.187 445.354 114.451 446.203C115.441 449.382 116.504 454.531 117.692 461.387C118.315 464.985 119.051 471.86 119.841 479.232C119.923 480.004 120.007 480.782 120.091 481.562C120.334 483.824 120.588 486.184 120.855 488.607C121.632 489.849 122.271 491.258 122.749 492.396C123.694 494.645 124.637 497.387 125.533 500.277C127.331 506.085 129.177 513.275 130.742 520.23C131.836 525.093 132.839 530.053 133.608 534.532C134.364 535.477 135.117 536.469 135.852 537.502C136.504 537.551 137.046 537.828 137.398 538.044C138.395 538.655 139.304 539.7 139.898 540.462C140.501 541.235 141.167 542.218 141.67 543.186C143.051 545.842 144.411 548.414 145.772 550.819C145.853 550.843 145.92 550.867 145.97 550.886C146.543 551.104 147.146 551.548 147.48 551.799C148.324 552.433 149.474 553.416 150.607 554.412C151.899 555.547 153.158 556.686 154.191 557.621C155.122 558.463 155.87 559.14 156.295 559.5C162.756 564.971 168.998 568.808 175.701 570.42C179.713 571.385 183.725 572.551 187.726 573.965C189.126 574.199 190.695 574.477 192.251 574.898C193.591 575.261 195.01 575.751 196.394 576.471C200.769 576.149 205.113 575.634 209.446 574.834C220.937 567.972 232.029 555.512 242.621 542.05C243.311 541.173 245.159 538.391 247.198 535.322C247.678 534.599 248.168 533.861 248.656 533.128C249.845 531.344 251.009 529.612 251.787 528.537C251.986 528.263 252.196 527.979 252.396 527.729L252.408 527.714C252.531 527.56 252.929 527.06 253.398 526.694C253.541 526.583 253.825 526.375 254.192 526.235C254.347 526.176 254.807 526.003 255.423 526.127C258.229 521.838 261.08 517.074 263.867 511.965C264.386 510.218 264.894 508.453 265.392 506.66C265.713 505.501 266.025 504.345 266.329 503.191C267.152 498.316 268.036 492.944 268.953 487.37C270.567 477.563 272.283 467.132 273.947 457.69C275.644 448.065 277.385 438.901 278.83 433.99C279.181 432.797 279.756 430.993 280.564 429.56C280.974 428.833 281.743 427.661 282.834 427.162C283.119 427.032 283.41 426.956 283.703 426.936C283.653 426.357 283.61 425.772 283.572 425.183C282.467 407.84 284.338 387.057 285.691 372.028C285.732 371.566 285.774 371.11 285.814 370.659C286.533 362.656 287.341 354.764 288.14 346.958C289.17 336.896 290.186 326.977 290.977 317.148V315.218C290.977 310.998 291.326 301.362 291.663 293.371C291.192 288.956 290.736 284.531 290.301 280.079C289.831 279.675 289.483 279.197 289.278 278.892C288.826 278.218 288.481 277.485 288.252 276.957C287.791 275.89 287.371 274.636 287.005 273.449C283.267 261.313 281.226 247.251 280.356 233.598C280.143 230.258 279.613 226.623 278.94 222.017C278.885 221.643 278.83 221.263 278.773 220.876ZM148.323 553.897C148.316 553.881 148.31 553.868 148.305 553.858L148.298 553.841C148.306 553.86 148.315 553.878 148.323 553.897ZM172.491 108.33C170.46 110.773 168.527 113.557 166.71 116.703C165.523 118.759 161.305 128.499 158.097 139.286C156.503 144.647 155.393 149.5 154.948 153.206C154.854 153.987 154.8 154.608 154.771 155.094C155.184 154.964 155.716 154.725 156.376 154.328C158.703 152.924 161.683 150.143 164.923 146.695C167.64 143.803 170.358 140.643 172.837 137.761C173.28 137.246 173.716 136.739 174.143 136.244C175.526 134.64 176.835 133.141 177.958 131.936C179.007 130.812 180.165 129.646 181.155 128.999C182.859 127.887 184.589 126.732 186.341 125.563C195.038 119.758 204.265 113.598 213.403 110.597C206.729 109.051 199.854 106.491 193.988 103.606C189.921 101.605 186.109 100.875 182.493 101.233C180.891 102.318 179.286 103.483 177.628 104.686C177.319 104.911 177.008 105.137 176.695 105.364C175.325 106.356 173.921 107.363 172.491 108.33ZM154.764 156.523C154.786 156.604 154.788 156.66 154.788 156.66C154.788 156.66 154.775 156.624 154.764 156.523Z" fill="#F8685F"/>
<path fill-rule="evenodd" clip-rule="evenodd" d="M198.816 113.352C199.684 112.255 200.533 111.247 201.341 110.377C203.756 106.52 206.558 102.868 209.258 101.914C210.707 101.402 212.662 101.487 214.458 104.061C216.299 106.702 217.122 110.735 217.433 114.273C217.756 117.945 217.809 121.614 217.656 125.224C217.676 125.315 217.69 125.386 217.7 125.434L217.706 125.463C217.827 126.043 217.912 126.579 217.969 126.963C217.998 127.158 218.026 127.359 218.054 127.566C219.411 125.087 220.835 122.833 222.331 120.862C223.899 118.797 226.09 116.56 228.471 117.306C231.569 118.275 233.086 123.375 233.631 127.448C233.681 127.826 233.726 128.208 233.765 128.592C237.13 129.651 238.443 135.809 238.875 139.55C239.382 143.942 239.518 148.401 239.414 152.78C240.384 151.007 241.383 149.376 242.36 148.111C243.054 147.214 243.899 146.285 244.837 145.714C245.741 145.162 247.155 144.687 248.681 145.88C252.336 148.736 252.604 156.861 252.575 160.099C252.557 162.087 252.43 164.293 252.212 166.698C252.9 165.809 253.853 164.957 255.012 164.961C256.25 164.965 257.434 165.957 258.35 167.766C259.166 169.379 259.557 171.217 259.749 172.4C260.112 174.636 260.125 176.824 260.113 178.031C260.113 178.084 260.112 178.137 260.111 178.191C261.394 179.522 262.028 181.884 262.318 183.405C263.051 181.108 263.993 178.666 265.166 176.889C265.584 176.256 266.365 175.301 267.45 175.126C268.658 174.932 269.758 175.784 270.582 177.16C271.836 179.254 272.161 182.035 272.212 182.477C272.214 182.491 272.215 182.503 272.216 182.512C272.377 183.852 272.366 184.993 272.365 185.138L272.365 185.15C272.362 185.752 272.334 186.264 272.326 186.408C272.303 186.849 272.268 187.339 272.236 187.757C272.169 188.651 272.068 189.871 271.948 191.262C271.705 194.07 271.363 197.83 271.001 201.66C270.739 204.424 270.465 207.253 270.207 209.812C270.547 209.368 270.988 208.893 271.514 208.572C272.042 208.249 272.878 207.945 273.861 208.409C274.93 208.914 275.853 210.183 276.513 211.917C277.223 213.786 277.484 215.788 277.58 217.214C278.491 216.712 279.702 216.652 280.945 218.128C282.382 219.834 282.911 222.543 283.073 223.495C283.271 224.659 283.329 225.66 283.352 226.157C283.431 227.875 283.314 229.633 283.264 230.383C283.123 232.49 282.849 235.288 282.562 237.964C282.204 241.307 281.751 245.142 281.367 248.103C281.625 247.793 281.951 247.469 282.339 247.228C283.206 246.689 284.592 246.472 285.964 248.248C287.221 249.874 287.737 252.251 287.935 253.457C288.141 254.709 288.184 255.769 288.197 256.291C288.238 257.914 288.078 259.327 288.048 259.587L288.045 259.617C287.938 260.601 287.766 261.759 287.605 262.793C287.353 264.409 286.991 266.572 286.549 269.143C287.256 269.896 287.826 270.992 288.221 272.142C288.829 273.909 288.997 275.637 289.046 276.178C289.16 277.433 289.134 278.475 289.127 278.735L289.127 278.753C289.109 279.494 289.058 280.167 289.031 280.501C288.967 281.31 288.868 282.306 288.759 283.33C288.534 285.445 288.194 288.388 287.782 291.828C287.738 292.204 287.692 292.587 287.645 292.976C287.78 293.166 287.909 293.368 288.031 293.578C288.864 295.013 289.331 296.724 289.579 297.796C290.082 299.958 290.366 302.496 290.564 304.823C291.081 310.922 291.218 317.074 291.112 323.147C291.166 323.269 291.219 323.393 291.269 323.519C291.966 325.247 292.221 327.049 292.314 327.782C292.43 328.697 292.479 329.52 292.504 330.092C292.594 332.16 292.506 334.637 292.405 336.693C291.98 345.31 290.527 360.655 289.174 368.631C288.249 374.081 287.353 379.647 286.487 385.289C286.596 385.804 286.664 386.232 286.705 386.505C286.901 387.813 286.962 389.018 286.988 389.792C287.286 398.84 285.895 408.113 284.412 415.716C284.128 417.171 283.826 418.63 283.516 420.074C283.307 421.581 283.018 423.249 282.674 425.049C281.58 430.773 280.285 436.493 278.919 442.069C278.858 442.59 278.798 443.111 278.738 443.631C278.465 445.99 278.266 447.652 278.144 448.515L278.143 448.524C278.13 448.62 278.032 449.333 277.877 450.059L277.875 450.069C277.837 450.249 277.682 450.974 277.408 451.782C277.289 452.135 276.929 453.17 276.306 454.096C276.142 454.339 275.91 454.641 275.622 454.925C275.105 456.877 274.592 458.794 274.091 460.669C273.928 461.279 273.766 461.883 273.606 462.483C271.363 470.879 268.726 479.138 265.732 486.725C264.199 491.144 262.581 495.455 260.882 499.528C260.508 500.797 260.128 502.059 259.741 503.314C257.529 510.495 254.999 516.526 252.199 521.612C249.848 526.616 245.82 534.824 241.883 541.973C239.067 547.085 236 552.212 233.45 555.256C232.309 556.618 230.597 558.417 228.788 558.573C228.12 558.631 227.248 558.478 226.35 557.71C224.546 561.121 222.639 564.552 220.686 567.767C217.515 572.987 214.07 577.906 210.581 581.368C207.138 584.785 203.272 587.164 199.405 586.234C197.819 585.852 195.935 583.811 195.099 579.203C194.949 578.377 194.854 577.567 194.797 576.792C194.193 577.553 193.583 578.3 192.967 579.032C191.217 581.108 189.415 582.696 187.693 583.278C186.176 583.79 183.401 583.888 181.435 579.057C180.957 577.882 180.618 576.642 180.386 575.392C178.169 577.972 175.852 580.144 173.439 581.68C172.231 582.449 170.711 583.095 169.172 582.489C167.289 581.747 165.53 579.121 164.766 574.605C164.244 571.521 164.372 568.564 164.554 566.597C164.152 566.368 163.744 566.043 163.34 565.59C162.455 564.6 161.632 563.033 161.072 560.865C160.83 561.125 160.594 561.372 160.362 561.603C159.764 562.201 159.126 562.775 158.493 563.207C157.941 563.584 157.023 564.12 155.99 564.03C154.928 563.937 152.629 562.918 151.533 557.686C150.684 553.631 151.254 549.887 151.465 548.628C151.688 547.301 152.015 545.93 152.409 544.543C151.421 544.152 150.346 543.221 149.407 541.236C147.883 538.015 147.666 534.076 147.734 531.411C146.252 531.65 144.343 531.025 142.839 527.354C141.863 524.971 141.497 522.262 141.392 519.924C141.323 519.904 141.253 519.881 141.183 519.856C139.243 519.156 137.666 516.473 136.911 512.588C136.72 511.604 136.597 510.627 136.523 509.692C136.412 509.681 136.301 509.664 136.189 509.641C133.964 509.179 132.311 506.443 131.338 503.051C131.111 502.259 130.924 501.445 130.769 500.629C129.769 499.924 128.784 498.774 127.986 497.738C124.719 493.503 120.214 485.355 118.479 481.183C111.991 465.583 109.725 446.312 107.731 429.359C107.392 426.476 107.061 423.659 106.718 420.939C106.222 417.007 105.443 411.476 104.59 405.423C103.798 399.805 102.943 393.737 102.193 388.079C101.485 382.748 100.819 377.392 100.612 374.128C100.565 373.397 100.479 371.901 100.562 370.296C100.595 369.653 100.714 367.566 101.382 365.459C101.765 364.25 102.392 362.845 103.336 361.938C103.88 361.415 104.421 361.162 104.927 361.093C104.552 354.722 104.294 348.379 104.148 342.068C102.947 341.259 102.209 339.635 101.887 338.831C101.476 337.804 101.216 336.782 101.067 336.134C100.762 334.811 100.554 333.42 100.415 332.382C99.8637 328.255 99.4878 322.496 99.4021 321.092C98.789 311.047 99.8498 299.982 100.637 291.774C100.757 290.517 100.871 289.328 100.972 288.219C102.861 267.403 106.813 246.388 110.35 227.583C110.755 225.431 111.154 223.307 111.544 221.216C117.091 191.491 124.74 167.736 135.063 145.395C135.658 144.108 136.266 142.674 136.976 140.998C137.11 140.682 137.248 140.357 137.39 140.023C138.245 138.01 139.221 135.746 140.274 133.59C142.324 129.397 145.095 124.699 148.623 122.963C149.636 122.465 151.811 121.696 153.959 121.961C155.741 119.229 157.597 116.857 159.525 114.98C161.176 113.372 163.156 112.046 165.18 112.652C166.106 112.929 166.936 113.576 167.657 114.507C171.355 110.557 175.177 107.177 179.083 104.359C180.596 103.268 182.654 101.987 184.791 101.036C186.853 100.117 189.323 99.3472 191.524 99.6952C192.616 99.8679 193.99 100.361 195.283 101.815C196.698 103.407 198.086 106.277 198.617 110.697C198.726 111.595 198.789 112.483 198.816 113.352ZM128.894 491.913C128.894 491.913 128.892 491.899 128.888 491.871C128.892 491.9 128.894 491.914 128.894 491.913ZM155.67 544.386C155.67 544.385 155.685 544.376 155.712 544.363C155.684 544.381 155.67 544.388 155.67 544.386ZM173.511 570.552C173.51 570.553 173.512 570.513 173.522 570.427C173.517 570.508 173.512 570.551 173.511 570.552ZM192.404 530.594C193.104 529.241 193.806 527.885 194.509 526.545C195.049 525.387 195.591 524.237 196.135 523.093C196.116 522.991 196.098 522.89 196.081 522.789C194.87 525.431 193.645 528.03 192.404 530.594ZM229.688 472.112C229.688 472.113 229.688 472.113 229.689 472.113C229.696 472.094 229.704 472.074 229.712 472.055C229.704 472.074 229.696 472.093 229.688 472.112ZM196 551.684C197.526 548.085 199.117 544.528 200.759 540.993C201.98 538.669 203.16 536.475 204.315 534.444C206.127 531.258 207.892 527.935 209.618 524.531C209.553 524.699 209.489 524.868 209.424 525.036C209.008 526.122 207.268 531.43 206.059 535.369C202.671 541.13 199.377 546.643 196 551.684ZM211.297 553.732C210.234 556.503 209.228 559.196 208.313 561.732C210.51 559.206 212.818 555.865 215.151 552.024C216.247 550.221 217.325 548.347 218.378 546.442C218.367 546.433 218.356 546.424 218.345 546.416C217.748 545.931 216.89 544.997 216.157 543.23C215.78 543.896 215.403 544.559 215.025 545.219C214.462 546.613 213.899 548.006 213.336 549.398C212.823 550.668 212.324 551.851 211.897 552.688C211.78 552.918 211.604 553.25 211.388 553.59L211.383 553.599C211.362 553.631 211.334 553.676 211.297 553.732ZM278.242 447.233C278.238 447.295 278.235 447.33 278.235 447.329C278.235 447.327 278.237 447.297 278.242 447.233ZM291.251 335.864C291.252 335.863 291.241 335.907 291.219 335.984C291.239 335.902 291.25 335.864 291.251 335.864ZM287.794 284.478C287.794 284.475 287.795 284.472 287.796 284.47C287.805 284.431 287.805 284.437 287.794 284.478ZM256.564 273.906C255.768 277.095 254.971 280.273 254.175 283.445C253.594 285.759 253.015 288.069 252.437 290.377C252.454 290.385 252.47 290.393 252.486 290.401C253.733 286.051 254.966 281.621 256.167 277.135C256.298 276.062 256.431 274.986 256.564 273.906ZM250.973 177.427C250.974 177.425 250.975 177.46 250.975 177.537C250.973 177.468 250.973 177.429 250.973 177.427ZM245.077 217.686C244.591 219.521 244.109 221.385 243.633 223.275C242.335 228.423 241.112 233.588 239.939 238.711C240.081 238.95 240.219 239.201 240.353 239.466C241.216 235.359 242.095 231.357 242.96 227.424C243.683 224.137 244.395 220.898 245.077 217.686ZM243.428 159.114C243.43 159.109 243.434 159.178 243.436 159.34C243.427 159.201 243.426 159.12 243.428 159.114ZM139.686 482.385C139.583 483.383 139.496 484.343 139.424 485.255C139.427 485.249 139.43 485.243 139.432 485.238C139.885 484.336 140.361 483.383 140.854 482.386C141.238 480.976 141.543 479.915 141.704 479.375C141.259 480.107 140.804 480.813 140.339 481.49C140.123 481.805 139.905 482.103 139.686 482.385ZM156.789 499.056C156.682 499.328 156.576 499.6 156.47 499.872C156.453 499.915 156.425 499.985 156.387 500.082C156.233 500.472 155.91 501.291 155.477 502.419C155.056 503.048 154.635 503.654 154.218 504.234C154.41 503.831 154.587 503.458 154.751 503.113C155.421 501.703 155.868 500.763 156.175 500.191C156.374 499.82 156.578 499.442 156.789 499.056ZM163.678 513.925C163.046 514.988 162.408 516.025 161.763 517.031C161.686 517.237 161.608 517.448 161.528 517.663C162.043 516.966 162.563 516.232 163.087 515.465C163.284 514.952 163.481 514.438 163.678 513.925ZM253.422 410.822C249.177 423.062 244.742 434.812 240.16 446.366C242.422 441.02 244.72 435.746 247.061 430.57C249.294 424.04 251.43 417.459 253.422 410.822ZM175.594 141.1C175.718 140.952 175.841 140.804 175.963 140.655C175.833 140.791 175.704 140.927 175.575 141.064C175.581 141.076 175.588 141.088 175.594 141.1ZM152.152 162.946C152.006 163.189 151.86 163.429 151.714 163.667C150.225 167.094 148.694 170.998 147.416 175.023C146.047 179.333 145.146 183.238 144.777 186.442C144.57 188.241 144.557 189.532 144.642 190.495C145.621 189.285 146.991 186.852 148.623 183.117C150.045 179.86 151.43 176.174 152.646 172.669C151.964 169.498 151.891 166.197 152.157 163.045C152.155 163.012 152.154 162.979 152.152 162.946ZM136.921 212.588C137.013 212.44 137.005 212.484 136.911 212.604C136.914 212.599 136.918 212.593 136.921 212.588ZM133.889 451.556C133.89 451.554 133.905 451.541 133.934 451.523C133.903 451.548 133.889 451.557 133.889 451.556ZM143.847 191.259C143.847 191.258 143.85 191.257 143.857 191.255C143.85 191.258 143.847 191.259 143.847 191.259Z" fill="#DF5249"/>
<path fill-rule="evenodd" clip-rule="evenodd" d="M129.536 145.874C128.825 146.895 128.259 148.096 127.871 148.982C126.793 151.445 125.704 154.765 124.795 157.749C123.074 163.402 121.479 169.612 121.024 171.383C120.986 171.532 120.956 171.65 120.934 171.733C120.4 173.796 119.873 175.873 119.353 177.963C118.895 177.358 118.347 176.88 117.695 176.639C115.81 175.938 114.45 177.893 114.107 178.404C113.237 179.699 112.624 181.481 112.37 182.227C111.293 185.39 109.88 191.027 109.059 194.303C108.933 194.803 108.822 195.248 108.727 195.621C99.3422 232.657 97.5 278.035 97.5 317.233C97.5 320.622 97.5341 323.954 97.6001 327.235C97.5963 327.424 97.5925 327.613 97.5888 327.802C97.2717 343.925 97.9409 358.797 99.3955 372.984C100.87 400.543 103.867 427.667 108.607 452.03C111.608 467.454 115.309 482.643 119.691 496.892C121.135 504.119 127.754 511.868 129.495 519.047C133.537 535.722 133.65 551.937 140.478 562.914C141.257 564.166 142.399 565.75 143.785 566.317C144.547 566.628 145.538 566.694 146.593 565.901C147.69 565.076 148.528 563.568 149.099 561.87C150.097 558.909 150.206 555.654 150.225 554.161C150.249 552.322 150.146 550.509 150.027 549.01C149.569 543.239 148.388 536.469 148.063 534.873C146.174 525.581 143.978 515.659 141.223 506.396C141.969 506.51 142.839 506.286 143.749 505.308C145.578 503.343 146.185 499.855 146.394 497.845C147.182 500.722 147.991 503.581 148.822 506.42C150.236 511.248 153.229 519.496 155.537 525.279C156.633 528.022 157.864 530.951 158.792 532.593C158.996 532.953 159.504 533.838 160.176 534.485C160.468 534.766 161.318 535.538 162.445 535.376C163.959 535.159 165.515 533.283 166.309 529.772C166.893 527.196 166.797 524.852 166.757 524.082C166.704 523.059 166.592 522.225 166.518 521.732C166.367 520.719 166.163 519.775 165.995 519.047C164.744 513.631 163.282 508.358 161.874 503.395C161.592 502.402 161.313 501.425 161.038 500.46C159.906 496.491 158.834 492.732 157.851 488.95C155.392 479.489 153.103 470.12 150.99 460.72C152.005 462.593 153.075 464.429 154.203 466.228C156.235 469.469 159.096 468.53 160.593 464.133C162.091 459.735 161.657 453.544 159.625 450.303C147.42 430.842 143.429 406.547 139.337 371.927C139.083 369.784 138.833 366.213 138.555 361.612C138.484 360.421 138.411 359.17 138.336 357.891C138.14 354.543 137.934 351.007 137.712 347.892C137.557 345.709 137.382 343.538 137.178 341.595C136.99 339.81 136.714 337.575 136.27 335.613C136.056 334.667 135.647 333.071 134.928 331.65C134.124 330.061 132.695 328.308 130.845 328.883C130.36 329.034 129.929 329.322 129.549 329.683C129.532 328.94 129.514 328.188 129.495 327.426C129.649 321.333 129.89 315.323 130.22 309.455C130.574 303.177 130.783 296.892 130.981 290.902C131.02 289.735 131.059 288.58 131.098 287.438C131.341 280.305 131.613 273.541 132.136 266.871C132.204 266.009 132.425 264.117 132.714 261.648C132.916 259.917 133.152 257.902 133.391 255.758C133.639 253.535 133.902 251.056 134.027 249.221C134.06 248.736 134.095 248.123 134.112 247.473L134.112 247.455C134.123 247.044 134.16 245.613 133.969 243.979C133.881 243.228 133.598 241.072 132.682 239.161C132.035 237.81 131.264 236.97 130.467 236.594C132.27 221.712 134.441 206.702 136.871 191.076C137.487 187.111 138.085 182.923 138.703 178.589C139.954 169.813 141.291 160.44 143.043 151.125C143.955 146.271 144.921 141.796 145.949 137.799C146.382 136.877 146.814 135.96 147.241 135.052C147.877 133.7 148.504 132.368 149.112 131.072C151.322 126.361 153.388 121.908 154.425 119.255C154.66 118.654 155.053 117.624 155.358 116.468C155.358 116.468 155.364 116.447 155.367 116.435C155.469 116.053 155.931 114.317 156.015 111.945C156.065 110.519 156.009 107.848 155.14 105.268C154.224 102.551 152.965 101.572 152.13 101.282C150.867 100.844 149.85 101.68 149.659 101.837C149.652 101.843 149.641 101.852 149.641 101.852C149.281 102.141 148.971 102.482 148.76 102.727C148.321 103.238 147.84 103.896 147.354 104.597C143.756 109.788 140.927 117.315 138.651 125.584C138.588 125.718 138.526 125.851 138.463 125.984C138.09 125.608 137.666 125.318 137.186 125.165C135.456 124.613 134.238 126.334 133.916 126.815C133.473 127.478 133.185 128.161 133.066 128.453C132.676 129.416 132.438 130.413 132.415 130.508L132.413 130.515C132.271 131.088 132.134 131.743 132.03 132.249C131.583 134.435 130.821 138.55 129.986 143.292C129.84 144.123 129.689 144.986 129.536 145.874Z" fill="#AB4B45"/>
<path fill-rule="evenodd" clip-rule="evenodd" d="M170.284 554.118C169.558 553.245 168.84 551.907 168.297 549.853C165.095 553.185 161.758 556.045 158.278 558.242C156.951 559.08 155.59 559.702 154.317 559.686C153.203 559.673 150.855 559.117 149.38 554.446C148.984 553.189 148.74 551.916 148.602 550.691C148.059 550.606 147.498 550.392 146.939 549.991C145.167 548.721 143.768 545.799 143.205 541.776C142.739 538.444 142.986 535.35 143.224 533.422C143.335 532.53 143.475 531.639 143.638 530.759C143.128 529.877 142.65 528.754 142.231 527.337C142.148 527.055 142.07 526.774 141.998 526.492C140.809 527.022 139.468 527.297 138.135 526.816C137.467 526.575 136.467 525.992 135.527 524.392C134.519 522.676 133.86 520.254 133.646 517.569C132.327 517.306 131.071 515.81 130.272 513.246C128.862 508.716 129.415 502.57 131.508 499.517C132.164 498.56 132.76 497.69 133.3 496.902C135.168 494.174 136.366 492.426 137.067 491.447C137.298 491.125 137.529 490.809 137.739 490.544C137.741 490.542 137.744 490.538 137.748 490.533C137.827 490.43 138.386 489.702 139.058 489.298C139.266 489.173 139.803 488.873 140.5 488.937C141.074 488.989 142.314 489.371 143.389 491.491C143.532 491.278 143.672 491.07 143.809 490.87C143.905 490.564 144.006 490.264 144.112 489.97C145.3 486.686 146.928 484.703 148.291 483.444C149.718 482.127 151.301 481.202 152.842 480.525C153.005 480.454 153.168 480.384 153.333 480.317C153.404 480.21 153.474 480.104 153.542 480.002C154.01 479.297 155.116 477.985 156.164 476.806C157.34 475.483 158.858 473.866 160.343 472.506C161.659 471.299 163.506 469.758 165.118 469.409C165.568 469.311 166.209 469.253 166.923 469.529C167.624 469.799 168.74 470.529 169.708 472.624C169.921 473.085 170.106 473.557 170.266 474.034C170.415 474.153 170.565 474.289 170.715 474.442C171.154 474.888 171.579 475.474 171.967 476.202C172.906 475.018 173.816 474.015 174.659 473.21C175.386 472.515 176.114 471.92 176.807 471.487C177.414 471.108 178.321 470.641 179.291 470.705C179.754 470.735 180.668 470.903 181.633 472.032C182.614 473.18 183.529 475.227 183.938 478.047H184.737C185.002 477.757 185.266 477.474 185.526 477.201C186.358 476.328 187.228 475.483 188.05 474.815C188.782 474.221 189.829 473.468 190.903 473.284C191.418 473.197 192.41 473.143 193.488 474.095C194.352 474.858 195.164 476.191 195.742 478.047H200.867C205.006 471.641 208.719 466.055 210.82 463.414C211.315 462.792 211.98 461.996 212.635 461.479C212.64 461.474 212.647 461.469 212.653 461.464C212.87 461.291 213.769 460.576 214.878 460.784C215.535 460.907 216.829 461.469 217.902 463.969C219.033 466.606 219.186 469.67 219.133 471.477C219.088 472.985 218.889 474.271 218.698 475.194C218.841 475.091 218.979 474.998 219.113 474.917C219.444 474.715 220.189 474.291 221.064 474.378C221.512 474.423 222.371 474.629 223.281 475.763C223.722 476.313 224.126 477.022 224.47 477.868C226.74 477.868 229.187 477.902 231.591 478C231.819 478.009 232.048 478.019 232.276 478.029C232.386 477.951 232.539 477.854 232.719 477.768L232.729 477.764C232.89 477.686 233.607 477.344 234.506 477.693C234.673 477.779 234.91 477.96 235.172 478.198C237.899 478.395 240.506 478.702 242.653 479.176C244.155 479.508 245.647 479.964 246.847 480.664C247.179 480.858 247.598 481.13 248.042 481.526C248.165 481.46 248.305 481.395 248.455 481.344C248.859 481.249 250.265 481.525 251.21 482.286C252.588 484.809 253.402 490.398 253.374 493.798C255.898 490.484 258.492 487.303 261.172 484.403C261.859 483.659 262.488 483.02 263.021 482.559C263.279 482.336 263.62 482.063 263.992 481.852C263.996 481.85 264.003 481.846 264.011 481.841C264.197 481.731 265.235 481.12 266.444 481.745C267.243 482.158 268.643 483.419 269.472 486.819C270.246 489.997 269.998 492.947 269.832 494.229C269.545 496.446 268.958 497.958 268.83 498.289C268.825 498.301 268.821 498.312 268.817 498.322C268.416 499.364 267.916 500.332 267.555 501.008C266.001 503.914 262.915 508.866 259.485 514.312C258.683 515.587 257.856 516.897 257.014 518.23C250.363 528.768 242.81 540.734 239.207 547.823C231.108 563.757 222.798 565.437 214.952 564.84C213.847 565.592 212.735 566.191 211.633 566.572C210.157 567.083 208.782 567.344 207.562 567.187C206.479 567.048 204.771 566.507 203.343 563.911C203.306 563.844 203.269 563.776 203.234 563.707C202.55 563.699 201.857 563.701 201.157 563.703C200.301 564.204 199.351 564.676 198.439 565.082C196.532 565.931 194.231 566.737 192.184 567.019C191.175 567.159 190.069 567.195 189.038 566.936C188.284 566.746 186.442 566.188 185.012 563.244C184.892 562.998 184.777 562.738 184.666 562.463C183.778 563.192 182.88 563.886 181.973 564.54C180.599 565.531 179.315 566.24 178.139 566.569C177.021 566.88 175.651 566.953 174.301 565.978C172.764 564.868 171.326 562.401 170.653 558.469C170.392 556.947 170.292 555.468 170.284 554.118Z" fill="#FF756C"/>
<path fill-rule="evenodd" clip-rule="evenodd" d="M215.26 495.54C212.71 496.989 210.212 498.362 208.145 499.145C199.127 502.56 189.778 505.01 180.592 507.417C175.364 508.786 170.19 510.142 165.16 511.654C165.177 511.649 165.176 511.65 165.147 511.661C165.102 511.679 164.991 511.724 164.785 511.815C164.496 511.943 164.116 512.116 163.644 512.334C163.485 512.407 163.317 512.485 163.139 512.567C162.279 512.964 161.216 513.455 160.031 513.985C157.181 515.261 153.549 516.801 150.083 517.922C146.753 518.999 143.116 519.853 140.467 519.33C139.867 519.211 139.198 519.003 138.528 518.609C138.457 518.722 138.386 518.836 138.315 518.95C136.29 522.211 133.427 521.302 131.92 516.92C130.413 512.538 130.833 506.342 132.858 503.081C133.505 502.039 134.161 501.045 134.824 500.096C134.976 499.531 135.131 499.033 135.275 498.604C137.599 491.692 141.038 487.799 144.427 485.485C147.832 483.158 151.634 482.12 155.249 481.591C156.532 481.403 157.829 481.276 159.11 481.184C162.228 479.966 165.309 478.995 168.285 478.057C168.961 477.843 169.632 477.632 170.297 477.42C170.383 477.392 170.532 477.343 170.737 477.275C172.601 476.66 179.09 474.518 185.289 473.176C188.695 472.439 192.221 471.894 194.906 472.053C196.168 472.128 197.668 472.369 198.945 473.241C199.537 473.646 200.665 474.561 201.604 476.738C202.141 477.984 202.533 479.455 202.759 481.041C204.03 480.6 205.3 480.141 206.569 479.66C208.296 479.006 210.568 477.759 213.319 476.19C213.706 475.97 214.101 475.743 214.503 475.513C216.881 474.152 219.5 472.652 222.119 471.338C225.179 469.802 228.38 468.446 231.396 467.814C234.347 467.196 237.488 467.185 240.266 468.903C241.188 469.473 242.564 470.578 243.641 473.079C244.24 474.468 244.758 476.323 244.982 478.611C245.205 480.881 245.078 482.964 244.827 484.633C244.373 487.646 243.463 489.691 242.931 490.755C242.318 491.982 241.638 493.01 241.032 493.83C239.814 495.482 238.436 496.906 237.335 497.925C236.365 498.823 235.154 499.831 234.341 500.191C231.623 501.394 228.862 501.568 226.367 501.501C225.243 501.47 224.12 501.387 223.064 501.31C222.943 501.301 222.822 501.292 222.703 501.283C221.52 501.197 220.424 501.125 219.375 501.125C217.564 501.125 215.999 498.845 215.26 495.54ZM237.872 488.008C237.871 488.01 237.851 487.996 237.816 487.963C237.856 487.99 237.874 488.007 237.872 488.008ZM236.712 476.257C236.75 476.171 236.759 476.163 236.725 476.231C236.722 476.238 236.717 476.247 236.712 476.257ZM195.433 477.707C195.427 477.712 195.421 477.718 195.414 477.724C195.513 477.608 195.536 477.613 195.433 477.707Z" fill="#FFB0AB"/>
<path fill-rule="evenodd" clip-rule="evenodd" d="M95.9766 329.688C95.9766 193.592 140.111 82.4219 195 82.4219C249.889 82.4219 294.023 193.592 294.023 329.688C294.023 465.783 249.889 576.953 195 576.953C140.111 576.953 95.9766 465.783 95.9766 329.688ZM195 89.0156C142.194 89.0156 99.0234 196.303 99.0234 329.688C99.0234 392.265 108.525 449.097 124.066 491.803C124.152 491.677 124.245 491.568 124.345 491.48C147.085 471.359 207.02 443.304 265.619 491.449C265.732 491.542 265.838 491.662 265.934 491.803C281.475 449.098 290.977 392.265 290.977 329.688C290.977 196.303 247.806 89.0156 195 89.0156ZM263.938 497.124C246.46 542.335 221.989 570.359 195 570.359C168.006 570.359 143.53 542.324 126.052 497.098C148.635 477.518 206.921 450.798 263.938 497.124Z" fill="#501D1D"/>
<path fill-rule="evenodd" clip-rule="evenodd" d="M195 69.2344C130.075 69.2344 77.6953 195.018 77.6953 349.469C77.6953 479.841 115.016 589.788 165.701 620.9C160.44 640.308 154.411 661.941 149.453 678.096C141.144 705.17 124.793 735.681 112.383 756.711C109.436 761.705 108.823 769.582 109.799 776.009C110.777 782.447 113.433 787.953 117.202 787.953H272.798C276.567 787.953 279.224 782.447 280.201 776.009C281.177 769.582 280.564 761.705 277.617 756.711C265.207 735.681 248.856 705.17 240.547 678.096C235.589 661.941 229.56 640.308 224.299 620.9C274.984 589.788 312.305 479.841 312.305 349.469C312.305 195.018 259.925 69.2344 195 69.2344ZM80.7422 349.469C80.7422 198.023 132.037 75.8281 195 75.8281C257.963 75.8281 309.258 198.023 309.258 349.469C309.258 500.915 257.963 623.109 195 623.109C132.037 623.109 80.7422 500.915 80.7422 349.469ZM221.247 622.669C212.812 627.271 204.027 629.703 195 629.703C185.973 629.703 177.188 627.272 168.753 622.669C163.382 642.521 157.127 665.01 151.991 681.745C143.38 709.803 126.663 740.888 114.262 761.903C112.491 764.903 112.048 769.701 112.694 773.95C113.337 778.188 114.98 781.359 117.202 781.359H272.798C275.021 781.359 276.663 778.188 277.307 773.95C277.952 769.701 277.509 764.903 275.739 761.903C263.337 740.888 246.62 709.803 238.009 681.745C232.873 665.01 226.619 642.521 221.247 622.669Z" fill="#501D1D"/>
</g>
<defs>
<filter id="filter0_i_213_665" x="0" y="0" width="390" height="848" filterUnits="userSpaceOnUse" color-interpolation-filters="sRGB">
<feFlood flood-opacity="0" result="BackgroundImageFix"/>
<feBlend mode="normal" in="SourceGraphic" in2="BackgroundImageFix" result="shape"/>
<feColorMatrix in="SourceAlpha" type="matrix" values="0 0 0 0 0 0 0 0 0 0 0 0 0 0 0 0 0 0 127 0" result="hardAlpha"/>
<feOffset dy="4"/>
<feGaussianBlur stdDeviation="2"/>
<feComposite in2="hardAlpha" operator="arithmetic" k2="-1" k3="1"/>
<feColorMatrix type="matrix" values="0 0 0 0 0 0 0 0 0 0 0 0 0 0 0 0 0 0 0.25 0"/>
<feBlend mode="normal" in2="shape" result="effect1_innerShadow_213_665"/>
</filter>
</defs>
</svg>
